# xmcd
#
# Track frame offsets: 
#        150
#        17928
#        36433
#        51902
#        68404
#        85609
#        101608
#        116223
#        138084
#        158889
#        173867
#        193866
#        209964
#        232523
#
# Disc length: 3329 seconds
#
# Revision: 0
# Processed by: cddbd v1.5.2PL0 Copyright (c) Steve Scherf et al.
# Submitted via: ExactAudioCopy v1.2
#
DISCID=bf0cff0e
DTITLE=Charlie Landsborough - Still Can't Say Goodbye and Once In A Whil
DTITLE=e, CD1
DYEAR=2010
DGENRE=Country
TTITLE0=One True Love
TTITLE1=Why Worry
TTITLE2=Muddy Roads
TTITLE3=Blue Umbrella
TTITLE4=Still Can't Say Goodbye
TTITLE5=I've Been Rained On Too
TTITLE6=Angels With One Wing
TTITLE7=Like I Used To Do
TTITLE8=Five Fingers
TTITLE9=It'll Be Her
TTITLE10=Time To Learn
TTITLE11=When I'm Dead Gone
TTITLE12=Heaven Knows [Live]
TTITLE13=Part Of Me [Live]
EXTD=
EXTT0=
EXTT1=
EXTT2=
EXTT3=
EXTT4=
EXTT5=
EXTT6=
EXTT7=
EXTT8=
EXTT9=
EXTT10=
EXTT11=
EXTT12=
EXTT13=
PLAYORDER=
